# xmcd CD database file
#
# Track frame offsets:
#        150
#        14701
#        34732
#        52363
#        72075
#        101164
#        126695
#        147398
#        170602
#        186762
#        208634
#        228795
#        248452
#        269670
#
# Disc length: 3809 seconds
#
# Revision: 0
# Processed by: cddbd v1.5.2PL0 Copyright (c) Steve Scherf et al.
# Submitted via: CUERipper 2.1.5
#
DISCID=da0edf0e
DTITLE=Jeff Healey Band - Playlist: The Very Best Of The Jeff Healey Band
DYEAR=2013
DGENRE=Blues-Rock
TTITLE0=Confidence Man
TTITLE1=See The Light
TTITLE2=Hell To Pay
TTITLE3=Angel Eyes
TTITLE4=I Think I Love You Too Much
TTITLE5=Blue Jean Blues
TTITLE6=Cruel Little Number
TTITLE7=While My Guitar Gently Weeps
TTITLE8=I'm Ready
TTITLE9=House That Love Built
TTITLE10=Angel
TTITLE11=Stop Breakin' Down
TTITLE12=It Could All Get Blown Away
TTITLE13=Highway 49
EXTD=
EXTT0=
EXTT1=
EXTT2=
EXTT3=
EXTT4=
EXTT5=
EXTT6=
EXTT7=
EXTT8=
EXTT9=
EXTT10=
EXTT11=
EXTT12=
EXTT13=
PLAYORDER=
